<?xml version="1.0" encoding="UTF-8" standalone="no"?>
<!-- Created with Inkscape (http://www.inkscape.org/) -->
<svg
   xmlns:svg="http://www.w3.org/2000/svg"
   xmlns="http://www.w3.org/2000/svg"
   version="1.0"
   width="720"
   height="426"
   id="svg2">
  <defs
     id="defs4">

























</defs>
  <g
     transform="translate(-22.399767,-138.68921)"
     id="layer1">
    <line
       id="line2233"
       y2="542.36481"
       x2="526.35229"
       y1="542.36481"
       x1="218.09726"
       style="font-style:normal;font-variant:normal;font-weight:normal;font-stretch:normal;letter-spacing:normal;word-spacing:normal;text-anchor:start;fill:#293182;fill-opacity:1;stroke:none;stroke-width:5.98171902;stroke-linecap:butt;stroke-linejoin:miter;stroke-miterlimit:10.43299961;stroke-dasharray:none;stroke-dashoffset:0;stroke-opacity:1" />
    <g
       transform="translate(9.1159673,27.190275)"
       id="g3286">
      <path
         d="M 372.3125,139.1875 C 313.50039,139.1875 265.74999,186.90664 265.75,245.71875 C 265.75,301.62627 308.90539,347.50938 363.6875,351.90625 C 359.02546,346.20636 353.41552,338.69621 348.34375,331.5625 C 339.60189,319.29143 329.18556,300.87535 328.84375,282.46875 C 328.57884,268.83044 331.67398,261.3221 349.6875,232.96875 C 356.72029,221.88548 361.43362,202.91986 360.75,198.84375 C 360.07491,194.7591 367.328,205.00457 370.0625,211.875 C 373.67715,220.95868 373.12848,227.9049 366.4375,246.6875 C 363.25865,255.60026 358.05152,270.06538 363.28125,276.5 C 362.64036,275.72238 380.2818,257.71399 384.375,239.09375 C 387.49404,224.86581 386.20658,205.89225 380.0625,191.84375 C 374.68751,179.56414 368.20673,169.45484 369.53125,153.21875 C 370.07814,146.42522 371.95116,139.7339 372.15625,139.375 C 376.10417,149.30465 377.91937,152.92444 379.40625,155.71875 C 386.6356,169.39126 401.60905,189.61705 408.71875,203.375 C 415.79426,217.05605 421.30018,239.72868 413.0625,262.84375 C 404.97863,285.54009 397.15223,293.23842 389,311.59375 C 382.99196,325.10971 377.90472,341.69777 375.28125,352.21875 C 432.72252,350.64474 478.84375,303.53807 478.84375,245.71875 C 478.84375,186.90664 431.12461,139.1875 372.3125,139.1875 z "
         style="color:#000000;fill:#293182;fill-opacity:1;fill-rule:nonzero;stroke:none;stroke-width:0.99657911;stroke-linecap:butt;stroke-linejoin:miter;marker:none;marker-start:none;marker-mid:none;marker-end:none;stroke-miterlimit:4;stroke-dasharray:none;stroke-dashoffset:0;stroke-opacity:1;visibility:visible;display:inline;overflow:visible;enable-background:accumulate"
         id="path2253" />
      <path
         d="M 43.862625,479.46633 L 42.012379,479.46633 C 41.436719,479.46636 40.778854,479.42524 40.038783,479.34298 C 39.380892,479.26077 38.846376,479.21966 38.435236,479.21963 L 38.435236,508.57687 L 22.399766,508.57687 L 22.399766,425.31578 C 24.702284,425.31586 28.731705,425.23363 34.488043,425.06908 C 40.326572,424.9047 43.739246,424.82246 44.726074,424.82238 C 54.922947,424.82246 62.735091,427.08387 68.16253,431.60662 C 73.672093,436.04728 76.426902,442.37923 76.426965,450.60248 C 76.426902,458.90808 73.46651,465.81566 67.545781,471.32524 C 61.707178,476.75267 53.8128,479.46636 43.862625,479.46633 M 44.109325,437.89746 L 38.435236,438.02081 L 38.435236,465.7745 L 43.122527,466.14455 C 48.138716,466.1446 52.168138,464.86998 55.210804,462.32071 C 58.253387,459.6893 59.7747,456.11216 59.774746,451.58928 C 59.7747,447.23098 58.500087,443.85943 55.950903,441.4746 C 53.401635,439.08991 49.454446,437.89753 44.109325,437.89746 M 113.33585,509.81037 C 104.20795,509.81037 97.135899,507.34338 92.119691,502.40939 C 87.185694,497.39317 84.718701,489.58103 84.718705,478.97293 C 84.718701,469.26945 87.59686,461.37508 93.353189,455.28977 C 99.191726,449.12234 106.75717,446.0386 116.04955,446.03854 C 125.01292,446.0386 132.00273,448.58783 137.01901,453.68623 C 142.1174,458.78473 144.66663,466.47353 144.66669,476.75263 C 144.66663,486.37394 141.70624,494.30943 135.78551,500.55914 C 129.9469,506.72663 122.46369,509.81037 113.33585,509.81037 M 114.9394,459.36032 C 110.99218,459.36036 107.66174,460.88168 104.94807,463.92426 C 102.31658,466.88469 101.00085,471.3664 101.00087,477.36938 C 101.00085,490.03331 105.56479,496.36526 114.6927,496.36525 C 118.72209,496.36526 122.01141,494.76171 124.56068,491.55461 C 127.10986,488.2653 128.38448,483.61913 128.38452,477.61608 C 128.38448,465.44561 123.90277,459.36036 114.9394,459.36032 M 175.0978,508.57687 L 159.30903,508.57687 L 159.30903,430.61982 C 157.91106,430.3732 156.10193,430.1265 153.88164,429.87972 C 151.66134,429.55087 149.89333,429.3864 148.5776,429.38632 L 148.5776,419.51834 C 151.62022,419.10726 155.60853,418.81945 160.54253,418.65489 C 165.55873,418.49052 170.41049,418.40828 175.0978,418.40819 L 175.0978,508.57687 M 205.37471,439.37765 C 202.74323,439.37772 200.4407,438.47316 198.46712,436.66396 C 196.57575,434.77267 195.63007,432.47014 195.63008,429.75637 C 195.63007,427.12499 196.57575,424.9047 198.46712,423.09548 C 200.4407,421.20421 202.74323,420.25853 205.37471,420.25844 C 208.08838,420.25853 210.39091,421.20421 212.28229,423.09548 C 214.25586,424.9047 215.24266,427.12499 215.24269,429.75637 C 215.24266,432.47014 214.25586,434.77267 212.28229,436.66396 C 210.39091,438.47316 208.08838,439.37772 205.37471,439.37765 M 213.26909,508.57687 L 197.60367,508.57687 L 197.60367,459.36032 C 196.2057,459.11367 194.39657,458.86697 192.17628,458.62022 C 189.95598,458.29133 188.18797,458.12687 186.87224,458.12682 L 186.87224,448.25884 C 189.83263,447.84773 193.82094,447.55992 198.83717,447.39539 C 203.85337,447.23098 208.66401,447.14875 213.26909,447.14869 L 213.26909,508.57687 M 252.34624,509.81037 C 245.6031,509.81037 240.95693,508.41241 238.40772,505.61648 C 235.85848,502.82056 234.58386,497.80434 234.58387,490.56781 L 234.58387,459.48367 L 223.97579,459.48367 L 223.97579,447.27204 L 234.46052,447.27204 L 234.46052,428.39952 L 250.24929,424.20563 L 250.24929,447.27204 L 265.17462,447.27204 L 265.17462,459.48367 L 250.24929,459.48367 L 250.24929,486.37392 C 250.24927,490.23889 250.74267,492.91147 251.72949,494.39165 C 252.79849,495.78963 254.73097,496.48861 257.52693,496.4886 C 260.24059,496.48861 262.78981,496.15968 265.17462,495.5018 L 265.17462,508.20682 C 260.89845,509.27586 256.62233,509.81037 252.34624,509.81037 M 291.19789,439.37765 C 288.56641,439.37772 286.26388,438.47316 284.2903,436.66396 C 282.39893,434.77267 281.45325,432.47014 281.45326,429.75637 C 281.45325,427.12499 282.39893,424.9047 284.2903,423.09548 C 286.26388,421.20421 288.56641,420.25853 291.19789,420.25844 C 293.91156,420.25853 296.21409,421.20421 298.10548,423.09548 C 300.07904,424.9047 301.06584,427.12499 301.06587,429.75637 C 301.06584,432.47014 300.07904,434.77267 298.10548,436.66396 C 296.21409,438.47316 293.91156,439.37772 291.19789,439.37765 M 299.09227,508.57687 L 283.42685,508.57687 L 283.42685,459.36032 C 282.02888,459.11367 280.21975,458.86697 277.99946,458.62022 C 275.77916,458.29133 274.01115,458.12687 272.69542,458.12682 L 272.69542,448.25884 C 275.65581,447.84773 279.64412,447.55992 284.66035,447.39539 C 289.67656,447.23098 294.48719,447.14875 299.09227,447.14869 L 299.09227,508.57687 M 367.27995,480.45313 L 329.28822,480.45313 C 329.2882,491.80132 334.92117,497.47541 346.18714,497.47539 C 352.60129,497.47541 358.56319,496.20079 364.07286,493.65155 L 365.55306,505.86318 C 358.89212,508.49464 351.57337,509.81037 343.5968,509.81037 C 333.64656,509.81037 326.08111,507.26114 320.90044,502.16269 C 315.80197,497.06424 313.25275,489.16986 313.25275,478.47953 C 313.25275,468.77605 315.76086,460.92279 320.77709,454.91972 C 325.87553,448.91676 332.94758,445.91525 341.99325,445.91519 C 350.54546,445.91525 356.95964,448.46448 361.23581,453.56288 C 365.59412,458.66138 367.77329,465.24003 367.77335,473.29884 C 367.77329,474.77907 367.77329,476.21815 367.77335,477.61608 C 367.52659,478.93184 367.36213,479.87752 367.27995,480.45313 M 341.49985,457.51007 C 338.21049,457.51012 335.4968,458.62027 333.35877,460.84051 C 331.22068,462.97862 329.94607,465.93901 329.53492,469.7217 L 352.10793,469.7217 C 352.10789,465.85678 351.20332,462.85527 349.39424,460.71716 C 347.58507,458.57915 344.95361,457.51012 341.49985,457.51007 M 432.20692,479.46633 L 430.35668,479.46633 C 429.78102,479.46636 429.12315,479.42524 428.38308,479.34298 C 427.72519,479.26077 427.19068,479.21966 426.77953,479.21963 L 426.77953,508.57687 L 410.74406,508.57687 L 410.74406,425.31578 C 413.04658,425.31586 417.076,425.23363 422.83234,425.06908 C 428.67087,424.9047 432.08355,424.82246 433.07037,424.82238 C 443.26725,424.82246 451.07939,427.08387 456.50683,431.60662 C 462.01639,436.04728 464.7712,442.37923 464.77126,450.60248 C 464.7712,458.90808 461.81081,465.81566 455.89008,471.32524 C 450.05148,476.75267 442.1571,479.46636 432.20692,479.46633 M 432.45362,437.89746 L 426.77953,438.02081 L 426.77953,465.7745 L 431.46683,466.14455 C 436.48302,466.1446 440.51244,464.86998 443.5551,462.32071 C 446.59769,459.6893 448.119,456.11216 448.11905,451.58928 C 448.119,447.23098 446.84439,443.85943 444.2952,441.4746 C 441.74593,439.08991 437.79875,437.89753 432.45362,437.89746 M 501.68014,509.81037 C 492.55224,509.81037 485.48019,507.34338 480.46398,502.40939 C 475.52999,497.39317 473.06299,489.58103 473.063,478.97293 C 473.06299,469.26945 475.94115,461.37508 481.69748,455.28977 C 487.53602,449.12234 495.10146,446.0386 504.39384,446.03854 C 513.35721,446.0386 520.34702,448.58783 525.3633,453.68623 C 530.46169,458.78473 533.01092,466.47353 533.01098,476.75263 C 533.01092,486.37394 530.05053,494.30943 524.1298,500.55914 C 518.2912,506.72663 510.80798,509.81037 501.68014,509.81037 M 503.28369,459.36032 C 499.33647,459.36036 496.00603,460.88168 493.29236,463.92426 C 490.66088,466.88469 489.34515,471.3664 489.34517,477.36938 C 489.34515,490.03331 493.90908,496.36526 503.03699,496.36525 C 507.06638,496.36526 510.3557,494.76171 512.90497,491.55461 C 515.45415,488.2653 516.72877,483.61913 516.72882,477.61608 C 516.72877,465.44561 512.24706,459.36036 503.28369,459.36032 M 563.44207,508.57687 L 547.6533,508.57687 L 547.6533,430.61982 C 546.25532,430.3732 544.4462,430.1265 542.22591,429.87972 C 540.00561,429.55087 538.2376,429.3864 536.92187,429.38632 L 536.92187,419.51834 C 539.96449,419.10726 543.9528,418.81945 548.88679,418.65489 C 553.903,418.49052 558.75476,418.40828 563.44207,418.40819 L 563.44207,508.57687 M 593.71901,439.37765 C 591.08753,439.37772 588.785,438.47316 586.81142,436.66396 C 584.92005,434.77267 583.97436,432.47014 583.97438,429.75637 C 583.97436,427.12499 584.92005,424.9047 586.81142,423.09548 C 588.785,421.20421 591.08753,420.25853 593.71901,420.25844 C 596.43268,420.25853 598.73521,421.20421 600.62659,423.09548 C 602.60016,424.9047 603.58696,427.12499 603.58699,429.75637 C 603.58696,432.47014 602.60016,434.77267 600.62659,436.66396 C 598.73521,438.47316 596.43268,439.37772 593.71901,439.37765 M 601.61339,508.57687 L 585.94797,508.57687 L 585.94797,459.36032 C 584.55,459.11367 582.74087,458.86697 580.52058,458.62022 C 578.30028,458.29133 576.53227,458.12687 575.21654,458.12682 L 575.21654,448.25884 C 578.17693,447.84773 582.16524,447.55992 587.18147,447.39539 C 592.19767,447.23098 597.00831,447.14875 601.61339,447.14869 L 601.61339,508.57687 M 643.40422,509.68702 C 634.60525,509.68702 627.7799,507.30226 622.92816,502.53274 C 618.15863,497.68099 615.77387,490.15666 615.77387,479.95973 C 615.77387,469.84508 618.44644,461.70401 623.79161,455.53647 C 629.13675,449.28681 637.03112,446.16195 647.47476,446.16189 C 651.75085,446.16195 655.94474,446.73758 660.05644,447.88879 L 658.45289,461.58061 C 656.47925,460.84056 654.62901,460.30605 652.90215,459.97706 C 651.17522,459.56595 649.32497,459.36036 647.35141,459.36032 C 642.49962,459.36036 638.75802,461.04614 636.12658,464.41766 C 633.57733,467.70702 632.30272,472.35319 632.30274,478.35618 C 632.30272,483.86583 633.45398,488.18307 635.75653,491.30791 C 638.14127,494.43278 641.84176,495.99521 646.85801,495.9952 C 651.54526,495.99521 655.57469,495.13176 658.94629,493.40485 L 660.17979,506.84998 C 658.12391,507.59008 655.53357,508.24794 652.40875,508.82357 C 649.36609,509.3992 646.36458,509.68702 643.40422,509.68702 M 723.67442,480.45313 L 685.68269,480.45313 C 685.68267,491.80132 691.31564,497.47541 702.58161,497.47539 C 708.99576,497.47541 714.95766,496.20079 720.46733,493.65155 L 721.94753,505.86318 C 715.28659,508.49464 707.96784,509.81037 699.99127,509.81037 C 690.04103,509.81037 682.47558,507.26114 677.29491,502.16269 C 672.19644,497.06424 669.64722,489.16986 669.64722,478.47953 C 669.64722,468.77605 672.15533,460.92279 677.17156,454.91972 C 682.27,448.91676 689.34205,445.91525 698.38772,445.91519 C 706.93993,445.91525 713.35411,448.46448 717.63028,453.56288 C 721.98859,458.66138 724.16776,465.24003 724.16782,473.29884 C 724.16776,474.77907 724.16776,476.21815 724.16782,477.61608 C 723.92106,478.93184 723.7566,479.87752 723.67442,480.45313 M 697.89432,457.51007 C 694.60496,457.51012 691.89127,458.62027 689.75324,460.84051 C 687.61515,462.97862 686.34054,465.93901 685.92939,469.7217 L 708.5024,469.7217 C 708.50236,465.85678 707.59779,462.85527 705.78871,460.71716 C 703.97954,458.57915 701.34808,457.51012 697.89432,457.51007"
         style="font-size:123.34976959px;font-style:normal;font-variant:normal;font-weight:normal;font-stretch:normal;text-align:start;line-height:100%;writing-mode:lr-tb;text-anchor:start;fill:#293182;fill-opacity:1;stroke:none;stroke-width:1px;stroke-linecap:butt;stroke-linejoin:miter;stroke-opacity:1;font-family:TheMixBold-Plain"
         id="text2257" />
    </g>
  </g>
</svg>
